<mxfile host="app.diagrams.net" agent="Mozilla/5.0 (X11; Linux x86_64; rv:138.0) Gecko/20100101 Firefox/138.0" version="26.2.14">
  <diagram name="ClinicalEventsMart" id="iHrwZiQKw4pyfjUADKOn">
    <mxGraphModel dx="1639" dy="1669" grid="1" gridSize="10" guides="1" tooltips="1" connect="1" arrows="1" fold="1" page="1" pageScale="1" pageWidth="850" pageHeight="1100" math="0" shadow="0">
      <root>
        <mxCell id="0" />
        <mxCell id="1" parent="0" />
        <mxCell id="J-zKHDl-xhwcwSVt34QU-1" value="ClinicalEventsMart" style="shape=ellipse;fillColor=#FFA500;fontSize=14;fontStyle=1;" vertex="1" parent="1">
          <mxGeometry x="300" y="150" width="160" height="60" as="geometry" />
        </mxCell>
        <mxCell id="J-zKHDl-xhwcwSVt34QU-2" value="Patient" style="shape=rectangle;fillColor=#ADD8E6;" vertex="1" parent="1">
          <mxGeometry x="100" y="30" width="100" height="40" as="geometry" />
        </mxCell>
        <mxCell id="J-zKHDl-xhwcwSVt34QU-3" value="Time" style="shape=rectangle;fillColor=#ADD8E6;" vertex="1" parent="1">
          <mxGeometry x="280" y="20" width="100" height="40" as="geometry" />
        </mxCell>
        <mxCell id="J-zKHDl-xhwcwSVt34QU-4" value="Provider" style="shape=rectangle;fillColor=#ADD8E6;" vertex="1" parent="1">
          <mxGeometry x="480" y="30" width="100" height="40" as="geometry" />
        </mxCell>
        <mxCell id="J-zKHDl-xhwcwSVt34QU-5" value="Organization" style="shape=rectangle;fillColor=#ADD8E6;" vertex="1" parent="1">
          <mxGeometry x="660" y="50" width="120" height="40" as="geometry" />
        </mxCell>
        <mxCell id="J-zKHDl-xhwcwSVt34QU-6" value="Procedure" style="shape=rectangle;fillColor=#D3D3D3;" vertex="1" parent="1">
          <mxGeometry x="200" y="280" width="100" height="40" as="geometry" />
        </mxCell>
        <mxCell id="J-zKHDl-xhwcwSVt34QU-7" value="Condition" style="shape=rectangle;fillColor=#D3D3D3;" vertex="1" parent="1">
          <mxGeometry x="360" y="280" width="100" height="40" as="geometry" />
        </mxCell>
        <mxCell id="J-zKHDl-xhwcwSVt34QU-8" value="Encounter" style="shape=rectangle;fillColor=#D3D3D3;" vertex="1" parent="1">
          <mxGeometry x="520" y="280" width="100" height="40" as="geometry" />
        </mxCell>
        <mxCell id="J-zKHDl-xhwcwSVt34QU-9" style="endArrow=block;" edge="1" parent="1" source="J-zKHDl-xhwcwSVt34QU-2" target="J-zKHDl-xhwcwSVt34QU-1" />
        <mxCell id="J-zKHDl-xhwcwSVt34QU-10" style="endArrow=block;" edge="1" parent="1" source="J-zKHDl-xhwcwSVt34QU-3" target="J-zKHDl-xhwcwSVt34QU-1" />
        <mxCell id="J-zKHDl-xhwcwSVt34QU-11" style="endArrow=block;" edge="1" parent="1" source="J-zKHDl-xhwcwSVt34QU-4" target="J-zKHDl-xhwcwSVt34QU-1" />
        <mxCell id="J-zKHDl-xhwcwSVt34QU-12" style="endArrow=block;" edge="1" parent="1" source="J-zKHDl-xhwcwSVt34QU-5" target="J-zKHDl-xhwcwSVt34QU-1" />
        <mxCell id="J-zKHDl-xhwcwSVt34QU-13" style="endArrow=block;" edge="1" parent="1" source="J-zKHDl-xhwcwSVt34QU-1" target="J-zKHDl-xhwcwSVt34QU-6" />
        <mxCell id="J-zKHDl-xhwcwSVt34QU-14" style="endArrow=block;" edge="1" parent="1" source="J-zKHDl-xhwcwSVt34QU-1" target="J-zKHDl-xhwcwSVt34QU-7" />
        <mxCell id="J-zKHDl-xhwcwSVt34QU-15" style="endArrow=block;" edge="1" parent="1" source="J-zKHDl-xhwcwSVt34QU-1" target="J-zKHDl-xhwcwSVt34QU-8" />
      </root>
    </mxGraphModel>
  </diagram>
</mxfile>
